<?xml version="1.0" standalone="no"?>
<!DOCTYPE svg PUBLIC "-//W3C//DTD SVG 20010904//EN"
 "http://www.w3.org/TR/2001/REC-SVG-20010904/DTD/svg10.dtd">
<svg version="1.0" xmlns="http://www.w3.org/2000/svg"
 width="500.000000pt" height="500.000000pt" viewBox="0 0 500.000000 500.000000"
 preserveAspectRatio="xMidYMid meet">

<g transform="translate(0.000000,500.000000) scale(0.100000,-0.100000)"
fill="#000000" stroke="none">
<path d="M2013 4796 c-95 -22 -174 -69 -252 -151 -126 -133 -190 -287 -260
-630 -42 -201 -106 -454 -119 -467 -4 -4 -72 -21 -152 -38 -80 -17 -176 -41
-215 -52 -169 -49 -289 -138 -347 -256 l-33 -67 1 -150 c1 -135 6 -175 47
-391 70 -366 79 -444 75 -666 -3 -175 -1 -196 16 -228 16 -28 19 -52 17 -115
-1 -56 3 -89 13 -108 15 -28 15 -29 -38 -81 -96 -97 -143 -225 -133 -366 14
-207 171 -476 318 -545 30 -14 64 -25 77 -25 13 0 22 -6 22 -15 0 -8 -6 -15
-14 -15 -27 0 -53 -46 -52 -91 1 -37 5 -45 31 -60 80 -47 387 -79 751 -80 216
0 267 7 449 65 140 44 225 63 490 110 100 18 143 22 152 14 16 -13 164 7 211
29 30 14 73 15 342 10 303 -7 308 -7 334 14 15 12 25 27 22 34 -2 7 6 22 20
34 15 13 24 31 24 49 -1 15 3 43 8 62 4 19 5 52 0 74 -11 47 -7 52 86 112 147
96 336 236 374 278 77 83 109 188 99 319 -11 153 -78 251 -218 324 -72 37 -77
38 -179 38 -103 0 -161 -14 -292 -70 -14 -5 -18 -2 -18 12 0 41 -40 173 -71
237 -39 80 -127 180 -215 242 l-63 45 6 78 c4 52 2 85 -6 100 -7 12 -10 35 -6
52 6 28 8 29 65 29 l59 0 154 183 c329 390 617 758 617 788 0 8 -18 32 -39 53
l-40 39 -63 -18 c-34 -9 -113 -35 -176 -56 l-113 -39 -82 24 c-182 55 -571
157 -582 152 -7 -2 -65 -77 -129 -165 -112 -153 -136 -180 -136 -146 0 8 -14
30 -31 50 l-31 35 3 448 c3 498 3 497 -67 640 -67 136 -195 245 -351 298 -97
33 -263 42 -360 20z m563 -411 c27 -14 63 -36 79 -49 l30 -24 0 -119 c-1 -230
-113 -603 -213 -706 -39 -40 -83 -57 -150 -57 -107 0 -168 -65 -208 -223 -22
-85 -11 -93 16 -12 13 39 25 65 27 59 7 -21 -38 -137 -92 -239 -29 -55 -59
-119 -66 -143 -14 -49 -23 -41 -33 28 -4 25 -24 119 -46 210 -70 293 -106 571
-84 645 7 22 15 52 18 68 5 19 13 27 27 27 30 0 15 15 -30 30 -22 7 -55 28
-73 47 -31 32 -33 39 -32 99 1 83 18 103 96 111 50 5 60 3 92 -22 44 -34 83
-28 125 20 16 18 43 41 61 50 17 9 70 53 118 97 138 129 230 157 338 103z
m-721 -215 c4 -6 -9 -10 -32 -10 -28 0 -34 3 -23 10 20 13 47 13 55 0z m161
-35 c-22 -17 -66 -20 -66 -6 0 6 17 12 38 14 20 2 39 4 42 5 3 1 -4 -5 -14
-13z m1347 -604 c341 -92 389 -103 427 -102 19 0 101 22 182 50 l147 49 37
-28 c35 -28 35 -29 12 -34 -35 -7 -361 -59 -373 -59 -5 0 -149 24 -318 53
-169 29 -309 51 -311 49 -11 -12 -192 -273 -307 -444 -172 -253 -319 -484
-355 -558 -16 -31 -31 -57 -34 -57 -3 0 -27 22 -54 49 l-48 49 18 33 c11 19
25 39 33 45 10 7 12 21 8 42 -6 30 -5 32 21 32 39 0 74 27 67 51 -5 15 -1 19
19 19 56 0 83 30 66 75 -9 25 -4 36 63 124 41 53 154 206 252 341 195 268 204
280 217 280 5 0 109 -27 231 -59z m-2010 -101 c-37 -142 -35 -225 10 -385 55
-198 68 -287 57 -387 -12 -99 -5 -176 22 -240 17 -39 18 -53 9 -79 -6 -18 -11
-43 -11 -55 0 -62 -36 4 -140 258 -28 67 -55 127 -60 132 -22 22 -8 -32 41
-158 67 -171 120 -275 181 -359 27 -38 48 -70 46 -72 -2 -1 -31 -13 -66 -25
-42 -16 -60 -26 -53 -33 9 -9 95 17 194 58 11 5 17 3 17 -5 0 -19 -89 -485
-96 -504 -3 -9 -4 -16 0 -16 18 0 42 87 91 332 63 313 65 320 106 381 41 62
111 97 194 97 34 0 65 -3 68 -6 3 -4 -14 -30 -38 -58 -61 -72 -66 -89 -50
-178 14 -85 43 -148 89 -196 33 -36 84 -67 94 -58 3 3 3 7 1 9 -99 73 -140
140 -161 263 l-12 72 35 40 c19 22 56 66 83 97 l49 56 -33 63 c-32 60 -33 65
-22 104 16 54 36 72 77 72 44 0 151 -34 199 -64 37 -23 37 -25 17 -35 -15 -9
-32 -9 -59 -1 -68 18 -128 13 -158 -15 -35 -33 -23 -44 21 -21 29 16 47 18
114 12 74 -7 81 -6 102 15 l23 23 -39 33 c-48 41 -131 73 -201 76 -30 1 -54 3
-54 5 0 14 46 94 64 111 22 21 24 21 107 5 81 -15 86 -18 145 -74 43 -41 58
-62 51 -69 -16 -16 -48 -13 -82 7 -33 20 -164 56 -173 47 -10 -10 12 -22 63
-35 28 -7 74 -25 102 -40 49 -25 52 -28 38 -46 -23 -31 -18 -51 25 -85 22 -18
40 -35 40 -38 0 -3 -24 -22 -53 -43 -49 -34 -59 -50 -164 -245 -105 -197 -150
-300 -108 -248 9 11 41 66 72 123 31 56 57 101 59 100 12 -13 22 -230 14 -294
-13 -105 -43 -164 -137 -269 -126 -141 -276 -249 -410 -295 l-71 -24 -63 34
c-35 18 -76 46 -91 62 -26 28 -120 78 -148 78 -9 0 -71 14 -138 30 -163 40
-222 39 -324 -4 -11 -5 -20 -1 -28 13 -14 28 -26 151 -13 151 5 0 24 -16 43
-35 51 -52 49 -33 -2 27 -82 97 -91 134 -76 308 14 152 2 264 -73 680 -27 151
-52 307 -56 347 -10 122 24 241 94 323 36 43 129 103 202 131 44 17 422 118
427 115 1 -1 -9 -44 -23 -96z m2117 5 c129 -19 249 -38 267 -41 l32 -5 -164
-225 c-91 -123 -194 -267 -231 -320 l-66 -94 -20 25 c-50 64 -102 -12 -68
-101 9 -23 6 -34 -22 -78 -17 -28 -32 -52 -33 -54 -1 -1 -17 4 -36 12 -19 8
-90 20 -158 27 -138 14 -146 11 -137 -48 4 -30 3 -33 -23 -33 -31 0 -51 -16
-51 -41 0 -15 -5 -16 -42 -7 -24 5 -84 8 -134 5 l-91 -4 90 141 c143 225 534
803 590 874 6 8 22 12 36 9 14 -3 132 -22 261 -42z m608 -117 c-124 -165 -239
-309 -462 -578 -186 -225 -186 -225 -232 -231 -42 -5 -45 -4 -39 15 3 12 10
44 16 72 11 48 9 55 -14 95 l-26 44 23 25 c31 33 344 464 404 556 l47 72 65 7
c36 4 117 16 180 25 63 10 119 18 123 19 4 0 -34 -54 -85 -121z m-1258 -8 c11
-21 20 -44 20 -50 0 -12 -72 -111 -77 -106 -2 2 1 23 6 47 5 24 11 68 12 97 2
28 6 52 11 52 4 0 17 -18 28 -40z m-336 -424 c80 -34 108 -58 87 -79 -6 -6
-29 -11 -52 -10 -31 2 -50 11 -85 42 -25 22 -62 45 -81 52 -26 8 -32 14 -22
20 26 16 74 8 153 -25z m-159 -10 c42 -20 89 -54 119 -84 45 -47 47 -51 29
-61 -29 -15 -84 3 -132 43 -30 25 -54 36 -93 41 -69 9 -88 14 -88 26 0 18 58
69 77 69 10 0 50 -15 88 -34z m1015 -245 c0 -9 -12 -51 -26 -95 -24 -71 -25
-84 -15 -131 9 -41 9 -70 -4 -150 -12 -71 -14 -129 -10 -206 8 -128 -3 -179
-44 -208 -51 -37 -154 -17 -166 31 -15 64 -27 130 -34 194 -4 39 -11 76 -15
83 -9 14 -1 14 25 1 13 -7 19 -7 19 0 0 13 -105 91 -193 142 -63 36 -100 79
-84 95 4 3 75 -26 159 -65 186 -86 208 -95 208 -81 0 6 -78 48 -173 94 -180
88 -218 114 -199 138 10 11 36 5 150 -34 77 -26 157 -56 180 -68 68 -35 82
-27 37 20 -51 52 -80 67 -167 85 -85 18 -124 37 -133 65 -4 11 -5 22 -3 24 2
2 63 -4 135 -15 110 -16 139 -24 182 -50 57 -36 92 -36 43 -1 l-32 22 27 37
c41 56 41 56 58 42 22 -19 20 11 -5 60 -20 39 -27 100 -13 114 9 8 93 -121 93
-143z m-1328 -188 c20 -21 20 -22 0 -43 -16 -17 -26 -20 -61 -14 -40 6 -51 20
-32 40 4 5 16 31 26 57 l18 48 14 -33 c8 -18 23 -43 35 -55z m521 -17 c31 4
57 4 57 0 0 -22 -42 -81 -107 -150 -76 -83 -101 -133 -89 -180 10 -41 26 -30
26 17 0 50 11 68 99 162 36 39 75 90 86 114 l19 43 63 -6 c74 -8 112 -19 95
-30 -22 -13 -12 -52 21 -83 17 -16 60 -47 94 -67 67 -40 102 -87 110 -147 5
-33 3 -37 -23 -42 -44 -9 -109 -60 -129 -103 -26 -55 -16 -168 29 -320 39
-132 73 -220 82 -211 3 3 -8 52 -25 109 -81 274 -92 381 -45 438 36 42 104 77
115 58 5 -7 9 -19 9 -25 0 -7 4 -13 8 -13 5 0 9 -20 10 -45 1 -104 42 -149
133 -148 58 1 104 25 126 66 15 27 18 54 15 184 -2 83 1 153 5 156 5 3 45 -25
90 -63 137 -117 209 -250 235 -428 20 -142 -19 -268 -111 -360 -91 -91 -191
-127 -387 -138 -92 -6 -121 -4 -168 11 -116 37 -194 142 -237 321 -25 106 -22
203 11 307 22 69 21 102 -1 54 -12 -27 -29 -27 -29 -1 0 23 -30 88 -37 81 -3
-4 2 -42 12 -86 10 -46 15 -90 11 -106 l-7 -28 -25 37 c-23 33 -44 47 -44 28
0 -4 13 -28 29 -53 22 -35 29 -61 33 -117 3 -40 3 -72 1 -72 -12 0 -133 103
-177 151 -28 31 -51 48 -54 41 -9 -28 147 -180 218 -212 21 -9 30 -26 45 -83
11 -40 20 -76 20 -80 0 -4 -88 -38 -195 -74 l-195 -67 -170 0 c-123 -1 -201 4
-283 18 l-113 19 53 30 c100 57 220 158 308 262 93 108 120 184 120 343 0 58
-7 133 -16 172 -14 65 -14 71 3 105 l19 36 13 -50 c12 -47 56 -110 68 -98 3 3
-6 30 -21 58 -46 94 -31 168 48 240 47 43 53 45 71 33 15 -11 36 -13 78 -8z
m1597 -717 c124 -59 173 -113 206 -225 12 -43 15 -81 12 -150 -9 -158 -55
-222 -273 -381 -144 -104 -147 -106 -99 -48 113 137 87 141 -31 5 -47 -55
-116 -123 -151 -149 -128 -97 -303 -173 -535 -231 -64 -17 -128 -34 -142 -39
-23 -9 -25 -7 -41 52 -38 137 -127 293 -231 405 l-54 59 98 91 99 92 153 3
c171 5 245 22 331 76 126 80 208 226 208 371 0 38 0 39 58 56 218 65 278 67
392 13z m-2955 -265 c189 -46 221 -55 251 -75 l29 -19 -60 0 c-33 0 -104 -3
-157 -7 -82 -5 -96 -8 -86 -20 9 -11 37 -12 148 -7 97 5 147 3 173 -5 20 -7
128 -64 239 -128 112 -63 249 -140 306 -170 118 -63 109 -40 92 -240 -14 -170
-17 -181 -53 -189 -16 -3 -62 -22 -101 -40 -58 -28 -82 -34 -137 -34 -86 0
-204 23 -341 66 -60 19 -124 34 -141 34 -38 0 -137 -18 -197 -35 -44 -14 -45
-13 -134 33 -50 25 -122 70 -161 99 -38 29 -73 53 -77 53 -49 0 127 -137 240
-187 31 -14 59 -26 60 -28 2 -2 -2 -19 -9 -38 l-12 -35 -55 25 c-75 33 -112
63 -177 144 -134 166 -190 402 -135 565 58 170 213 286 355 267 22 -3 85 -16
140 -29z m1603 -88 c18 -40 72 -95 121 -123 25 -15 48 -28 50 -30 3 -2 -37
-42 -89 -90 -75 -71 -98 -87 -120 -85 -18 2 -50 -12 -103 -48 -101 -67 -120
-93 -114 -148 2 -23 1 -45 -4 -48 -5 -3 -45 9 -89 27 l-80 33 0 40 c0 118
-127 198 -268 168 l-56 -12 -189 107 -189 106 56 17 c48 15 62 16 111 4 120
-27 308 -46 419 -42 103 4 123 8 281 62 94 32 181 64 195 72 37 20 55 17 68
-10z m-548 -349 c81 -32 91 -58 88 -216 l-3 -125 -69 -34 c-38 -18 -84 -36
-102 -39 l-33 -6 10 34 c14 48 32 313 25 355 -7 34 -26 48 -26 19 0 -14 -3
-13 -25 1 -14 9 -22 20 -19 25 10 17 99 9 154 -14z m606 -95 c126 -143 235
-370 225 -468 -1 -9 -172 -41 -190 -36 -3 0 -10 18 -16 39 -29 96 -136 268
-227 366 -46 48 -78 64 -59 28 10 -18 6 -31 -11 -31 -4 0 -8 14 -8 31 0 22 9
40 31 60 44 41 150 110 163 106 6 -2 47 -45 92 -95z m-418 -126 c29 -11 52
-23 52 -26 0 -7 -123 -80 -128 -76 -6 7 10 127 17 124 4 -2 30 -12 59 -22z
m214 -18 c62 -76 140 -199 175 -276 19 -40 33 -76 31 -78 -3 -2 -56 -10 -119
-19 -186 -24 -329 -53 -455 -90 -224 -67 -265 -75 -399 -81 -155 -8 -556 11
-675 32 -96 16 -177 41 -186 56 -4 6 2 6 14 -1 29 -16 132 -25 178 -17 57 11
23 26 -61 26 -79 0 -119 15 -123 47 -5 34 31 48 73 29 42 -20 46 -20 125 4
l65 19 -82 -6 c-96 -7 -113 2 -113 54 0 44 35 80 86 87 22 4 58 11 82 16 71
17 120 11 231 -24 141 -46 269 -69 356 -64 57 2 84 10 135 36 45 24 84 36 137
42 90 10 222 72 378 179 55 38 103 69 106 70 4 0 22 -18 41 -41z m1166 -128
c-2 -25 -7 -34 -18 -31 -19 4 -22 4 -103 3 -90 -3 -79 -22 12 -22 78 0 97 -13
87 -56 -6 -21 -11 -25 -29 -19 -41 12 -167 18 -167 8 0 -12 46 -23 94 -23 49
0 77 -11 74 -28 -2 -9 -14 -19 -28 -22 -31 -8 -652 3 -630 12 8 3 69 18 135
33 225 51 422 126 525 198 l35 25 8 -21 c4 -12 7 -37 5 -57z"/>
<path d="M1145 1998 c-56 -30 -182 -74 -232 -83 -52 -8 -57 -25 -7 -25 69 0
294 92 294 121 0 13 -10 11 -55 -13z"/>
<path d="M1273 2004 c-90 -44 -161 -135 -194 -249 -22 -71 -42 -108 -87 -157
-43 -47 -3 -32 43 15 31 32 47 62 64 118 13 41 30 87 38 103 22 43 89 111 144
146 27 18 49 34 49 36 0 8 -26 3 -57 -12z"/>
<path d="M2565 1500 c-69 -25 -186 -48 -308 -61 -157 -16 -171 -19 -159 -31
15 -15 240 7 357 34 85 20 195 60 195 72 0 10 -34 5 -85 -14z"/>
</g>
</svg>
